<svg width="512" height="512" viewBox="0 0 512 512" fill="none" xmlns="http://www.w3.org/2000/svg" xmlns:xlink="http://www.w3.org/1999/xlink" class=""><rect id="r9" width="512" height="512" x="0" y="0" rx="128" fill="url(#ra)" stroke="#FFFFFF" stroke-width="0" stroke-opacity="100%" paint-order="stroke"></rect><clipPath id="clip"><use xlink:href="#r9"></use></clipPath><defs><linearGradient id="ra" gradientUnits="userSpaceOnUse" gradientTransform="rotate(45)" style="transform-origin: center center;"><stop stop-color="#F668A5"></stop><stop offset="1" stop-color="#C7A3C7"></stop></linearGradient><radialGradient id="rb" cx="0" cy="0" r="1" gradientUnits="userSpaceOnUse" gradientTransform="translate(256) rotate(90) scale(512)"><stop stop-color="white"></stop><stop offset="1" stop-color="white" stop-opacity="0"></stop></radialGradient></defs><svg xmlns="http://www.w3.org/2000/svg" fill="none" viewBox="0 0 16 16" width="352" height="352" x="80" y="80" alignment-baseline="middle" style="color: rgb(255, 255, 255);"><path stroke="currentColor" stroke-linecap="round" stroke-linejoin="round" stroke-width="1.5" d="M5.25 12.5a1.75 1.75 0 1 1-3.5 0 1.75 1.75 0 0 1 3.5 0Zm0 0V4.78a1 1 0 0 1 .757-.97l7-1.75a1 1 0 0 1 1.243.97v7.47m0 0a1.75 1.75 0 1 1-3.5 0 1.75 1.75 0 0 1 3.5 0Z"></path></svg></svg>